<svg width="34" height="34" viewBox="0 0 34 34" fill="none" xmlns="http://www.w3.org/2000/svg">
<path d="M22.7017 28.4509C22.9407 28.5014 23.0428 28.7842 22.8947 28.9784C20.5828 32.0096 16.9038 33.9998 12.75 33.9998C5.71957 33.9998 0 28.2803 0 21.2498C0 15.7739 2.64204 10.6026 6.07684 6.30843C9.04387 2.59964 11.977 0.317256 12.1005 0.221631C12.483 -0.0738769 13.017 -0.0738769 13.3995 0.221631C13.5247 0.317721 15.8131 2.10119 18.3749 5.05043C18.4795 5.17076 18.4822 5.34833 18.3836 5.47363C15.7564 8.81779 13.8125 13.0329 13.8125 17.3187C13.8125 22.7461 17.5737 27.368 22.7017 28.4509Z" fill="black"/>
<path d="M34 17.3182C34 22.6503 29.5832 26.8999 24.3532 26.5407C19.658 26.2151 15.9375 22.2022 15.9375 17.3182C15.9375 13.5741 17.6502 9.96117 19.9292 6.95416C21.3695 5.06052 23.1496 3.27128 24.3087 2.35487C24.6952 2.04807 25.2423 2.04807 25.6288 2.35487C25.7145 2.4226 27.7445 4.04424 29.7912 6.67127C32.5444 10.2048 34 13.8863 34 17.3182Z" fill="black"/>
</svg>
