<svg width="19" height="27" viewBox="0 0 19 27" fill="none" xmlns="http://www.w3.org/2000/svg">
<path d="M9.28736 0C4.15739 0 0 4.15853 0 9.2885C0 13.199 5.39832 22.2098 7.96336 26.271C8.25081 26.725 8.75136 26.9999 9.28829 26.9999C9.82543 26.9988 10.3249 26.7241 10.6115 26.2701C13.1774 22.2081 18.5749 13.1989 18.5749 9.28845C18.5748 4.15853 14.4174 0 9.28736 0ZM9.28736 14.9591C6.38618 14.9591 4.03423 12.6075 4.03423 9.70594C4.03423 6.80471 6.38612 4.45282 9.28736 4.45282C12.1886 4.45282 14.5405 6.80465 14.5405 9.70594C14.5405 12.6075 12.1886 14.9591 9.28736 14.9591Z" fill="white"/>
</svg>
