<svg width="126" height="132" viewBox="0 0 126 132" fill="none" xmlns="http://www.w3.org/2000/svg">
<path d="M103.48 66.4805H99.5643L101.484 63.1557C102.18 61.9507 101.767 60.4096 100.562 59.714C99.3565 59.018 97.8156 59.431 97.12 60.6362L93.7457 66.4805H69.0827L86.5222 49.041L93.0405 50.7875C93.2591 50.8461 93.4784 50.8742 93.6944 50.8742C94.8067 50.8742 95.825 50.1317 96.1265 49.0062C96.4866 47.6621 95.6891 46.2804 94.345 45.9203L90.6366 44.9266L93.1682 42.3949C94.1522 41.4111 94.1522 39.8158 93.1682 38.8318C92.1844 37.848 90.589 37.848 89.6051 38.8318L87.0733 41.3636L86.0796 37.6552C85.7193 36.3111 84.3382 35.5146 82.9937 35.8737C81.6496 36.234 80.8521 37.6156 81.2123 38.9596L82.9589 45.4782L65.5195 62.9174V38.2542L71.3638 34.88C72.5688 34.1843 72.9819 32.6435 72.286 31.4383C71.5901 30.233 70.0491 29.8203 68.8443 30.5162L65.5195 32.4357V28.5197C65.5195 27.1283 64.3915 26.0002 63 26.0002C61.6085 26.0002 60.4805 27.1283 60.4805 28.5197V109.48C60.4805 110.872 61.6085 112 63 112C64.3915 112 65.5195 110.872 65.5195 109.48V105.564L68.8443 107.484C69.241 107.713 69.6742 107.822 70.1017 107.822C70.9725 107.822 71.8194 107.37 72.286 106.562C72.9819 105.357 72.5688 103.816 71.3638 103.12L65.5195 99.7459V75.0827L82.9589 92.522L81.2123 99.0407C80.8522 100.385 81.6499 101.766 82.994 102.126C83.2125 102.185 83.4317 102.213 83.6477 102.213C84.76 102.213 85.7782 101.47 86.0797 100.345L87.0733 96.6366L89.6049 99.1682C90.0969 99.6602 90.7417 99.9063 91.3864 99.9063C92.031 99.9063 92.676 99.6602 93.1679 99.1682C94.1518 98.1844 94.1518 96.589 93.1679 95.6051L90.6361 93.0733L94.3446 92.0796C95.6887 91.7193 96.4863 90.3378 96.1261 88.9937C95.7658 87.6496 94.3848 86.8521 93.0402 87.2124L86.5217 88.9589L69.0827 71.5195H93.7458L97.12 77.3639C97.5866 78.1723 98.4335 78.6241 99.3043 78.6241C99.7317 78.6241 100.165 78.5153 100.562 78.286C101.767 77.5903 102.18 76.0495 101.484 74.8443L99.5644 71.5195H103.48C104.872 71.5195 106 70.3915 106 69C106 67.6086 104.872 66.4805 103.48 66.4805V66.4805Z" fill="#F55E46"/>
<path d="M33.1106 69C33.1106 67.6085 31.9826 66.4805 30.5911 66.4805H22.5195C21.1281 66.4805 20 67.6085 20 69C20 70.3915 21.1281 71.5195 22.5195 71.5195H30.5911C31.9826 71.5195 33.1106 70.3915 33.1106 69Z" fill="#F55E46"/>
<path d="M38.3019 47.8651C38.7939 48.3572 39.4387 48.6031 40.0834 48.6031C40.728 48.6031 41.373 48.357 41.8648 47.8651C42.8488 46.8813 42.8488 45.2861 41.8648 44.3019L36.1576 38.5944C35.174 37.6104 33.5786 37.6104 32.5945 38.5944C31.6105 39.5781 31.6105 41.1733 32.5945 42.1575L38.3019 47.8651Z" fill="#F55E46"/>
<path d="M38.3019 90.1351L32.5945 95.8425C31.6105 96.8263 31.6105 98.4216 32.5945 99.4056C33.0865 99.8976 33.7313 100.144 34.376 100.144C35.0206 100.144 35.6656 99.8976 36.1574 99.4056L41.8648 93.6982C42.8488 92.7144 42.8488 91.119 41.8648 90.1351C40.881 89.1513 39.2857 89.1513 38.3019 90.1351V90.1351Z" fill="#F55E46"/>
<path d="M48.5179 39.8976C48.9141 40.8782 49.8581 41.4734 50.8545 41.4734C51.1689 41.4734 51.4886 41.4142 51.798 41.289C53.088 40.7676 53.7111 39.2989 53.1894 38.0089L50.1643 30.5256C49.6429 29.2356 48.174 28.6122 46.8842 29.1341C45.5942 29.6555 44.971 31.1242 45.4928 32.4142L48.5179 39.8976Z" fill="#F55E46"/>
<path d="M35.289 80.2019C34.7676 78.9119 33.2988 78.2887 32.0089 78.8104L24.5257 81.8356C23.2357 82.3569 22.6126 83.8257 23.1343 85.1157C23.5307 86.0963 24.4745 86.6915 25.4709 86.6915C25.7853 86.6915 26.105 86.6322 26.4144 86.5071L33.8976 83.482C35.1876 82.9606 35.8107 81.4921 35.289 80.2019V80.2019Z" fill="#F55E46"/>
<path d="M51.6658 96.6569C50.3778 96.1293 48.9067 96.7455 48.379 98.0328L45.3181 105.501C44.7903 106.789 45.4064 108.261 46.6939 108.788C47.0067 108.916 47.3302 108.977 47.6485 108.977C48.6405 108.977 49.5813 108.387 49.9809 107.412L53.0418 99.9437C53.5694 98.6563 52.9534 97.1847 51.6658 96.6569Z" fill="#F55E46"/>
<path d="M24.5877 55.9809L32.0564 59.0416C32.369 59.1698 32.6925 59.2304 33.0108 59.2304C34.003 59.2304 34.9437 58.6405 35.3433 57.6656C35.871 56.3782 35.2549 54.9066 33.9673 54.379L26.4985 51.3183C25.2112 50.7907 23.7395 51.4066 23.2119 52.6943C22.684 53.9817 23.2999 55.4533 24.5877 55.9809V55.9809Z" fill="#F55E46"/>
<path d="M37.8047 69C37.8047 80.2484 45.2146 89.7979 55.4092 93.0259V44.9741C45.2146 48.2021 37.8047 57.7517 37.8047 69Z" fill="#F55E46"/>
<path d="M123.5 69C123.5 102.413 96.4132 129.5 63 129.5C29.5868 129.5 2.5 102.413 2.5 69C2.5 35.5868 29.5868 8.5 63 8.5C96.4132 8.5 123.5 35.5868 123.5 69Z" stroke="#F55E46" stroke-width="5"/>
<circle cx="47" cy="9" r="9" fill="#F55E46"/>
<circle cx="47" cy="9" r="6" fill="white"/>
</svg>
