<svg width="37" height="34" viewBox="0 0 37 34" fill="none" xmlns="http://www.w3.org/2000/svg">
<path d="M34.0582 29.5271C33.6014 28.7893 33.138 28.1808 33.1334 28.1747L33 28L32.8666 28.1748C32.862 28.1808 32.3986 28.7893 31.9418 29.5271C31.3169 30.5366 31 31.301 31 31.799C31 33.0126 31.8972 34 33 34C34.1028 34 35 33.0126 35 31.799C35 31.301 34.6831 30.5366 34.0582 29.5271Z" fill="black"/>
<path d="M27.0582 29.5271C26.6014 28.7893 26.138 28.1808 26.1334 28.1747L26 28L25.8666 28.1748C25.862 28.1808 25.3986 28.7893 24.9418 29.5271C24.3169 30.5366 24 31.301 24 31.799C24 33.0126 24.8972 34 26 34C27.1028 34 28 33.0126 28 31.799C28 31.301 27.6831 30.5366 27.0582 29.5271Z" fill="black"/>
<path d="M20.0582 29.5271C19.6014 28.7893 19.138 28.1808 19.1334 28.1747L19 28L18.8666 28.1748C18.862 28.1808 18.3986 28.7893 17.9418 29.5271C17.3169 30.5366 17 31.301 17 31.799C17 33.0126 17.8972 34 19 34C20.1028 34 21 33.0126 21 31.799C21 31.301 20.6831 30.5366 20.0582 29.5271Z" fill="black"/>
<path d="M13.0582 29.5271C12.6014 28.7893 12.138 28.1808 12.1334 28.1747L12 28L11.8666 28.1748C11.862 28.1808 11.3986 28.7893 10.9418 29.5271C10.3169 30.5366 10 31.301 10 31.799C10 33.0126 10.8972 34 12 34C13.1028 34 14 33.0126 14 31.799C14 31.301 13.6831 30.5366 13.0582 29.5271Z" fill="black"/>
<path d="M29.9803 10.1422C29.5135 10.1422 29.0477 10.1947 28.5903 10.2992C28.2453 8.35466 27.1301 6.69589 25.5643 5.79805C23.9988 4.90021 22.1551 4.86255 20.5616 5.69563C19.1195 1.20889 14.7303 -1.10769 10.7581 0.521165C6.7858 2.15002 4.73485 7.10803 6.17693 11.5944C2.6973 11.7187 -0.0513102 14.9718 0.000726817 18.9035C0.0530754 22.8356 2.88707 25.9937 6.36857 26H29.9803C33.8569 26 37 22.4502 37 18.0711C37 13.6921 33.8569 10.1422 29.9803 10.1422Z" fill="black"/>
</svg>
