<svg width="86" height="86" viewBox="0 0 86 86" fill="none" xmlns="http://www.w3.org/2000/svg">
<path d="M78.6983 40.9805L79.1313 40.2305L81.0508 36.9057L81.0508 36.9057C81.6086 35.9398 81.2777 34.7046 80.3117 34.1471L80.3116 34.147C79.3456 33.5891 78.1105 33.9201 77.553 34.8861L77.553 34.8862L74.1787 40.7305L74.0343 40.9805H73.7457H49.0827H47.8755L48.7291 40.1269L66.1686 22.6874L66.3727 22.4833L66.6516 22.558L73.1699 24.3045L73.1701 24.3046C73.3461 24.3518 73.5219 24.3742 73.6944 24.3742C74.5862 24.3742 75.402 23.7782 75.6435 22.8768L75.6435 22.8768C75.9322 21.7994 75.2929 20.6919 74.2156 20.4032L74.345 19.9203L74.2156 20.4032L70.5072 19.4095L69.6707 19.1854L70.283 18.573L72.8146 16.0414L72.8147 16.0414C73.6033 15.2529 73.6034 13.9741 72.8146 13.1854C72.0261 12.3969 70.7474 12.3968 69.9586 13.1854C69.9586 13.1854 69.9586 13.1854 69.9586 13.1854L67.4268 15.7172L66.8145 16.3295L66.5903 15.493L65.5966 11.7847C65.3079 10.7076 64.2011 10.0688 63.1227 10.3568C62.0456 10.6458 61.4065 11.753 61.6953 12.8302L61.6953 12.8302L63.4419 19.3488L63.5166 19.6276L63.3124 19.8317L45.8731 37.2709L45.0195 38.1245V36.9174V12.2542V11.9655L45.2695 11.8212L51.1138 8.44701C51.1138 8.44701 51.1138 8.447 51.1138 8.447C52.0797 7.88933 52.4108 6.65434 51.853 5.68836L51.853 5.68834C51.2951 4.72214 50.06 4.39141 49.0944 4.94916L49.0943 4.9492L45.7695 6.86875L45.0195 7.30176V6.43574V2.51971C45.0195 1.4044 44.1153 0.500183 43 0.500183C41.8847 0.500183 40.9805 1.4044 40.9805 2.51971V83.4803C40.9805 84.5956 41.8847 85.4998 43 85.4998C44.1153 85.4998 45.0195 84.5956 45.0195 83.4803V79.5645V78.6984L45.7695 79.1314L49.0943 81.051L48.8443 81.484L49.0943 81.051C49.4131 81.2351 49.7597 81.3221 50.1017 81.3221C50.8011 81.3221 51.4793 80.9592 51.853 80.3119L52.286 80.5619L51.853 80.3118C52.4108 79.3458 52.0797 78.1107 51.1139 77.5532L51.3638 77.1202L51.1138 77.5532L45.2695 74.1789L45.0195 74.0345V73.7459V49.0827V47.8756L45.8731 48.7291L63.3124 66.1685L63.5166 66.3726L63.4419 66.6514L61.6953 73.1701C61.4067 74.2474 62.046 75.3547 63.1232 75.6435C63.2995 75.6906 63.4752 75.713 63.6477 75.713C64.5394 75.713 65.3553 75.1169 65.5968 74.2155L66.0797 74.3448L65.5968 74.2154L66.5903 70.5072L66.8144 69.6706L67.4268 70.283L69.9585 72.8147C70.3529 73.2091 70.869 73.4063 71.3864 73.4063C71.9038 73.4063 72.42 73.2091 72.8142 72.8147L72.8143 72.8146C73.603 72.0261 73.603 70.7474 72.8143 69.9586L70.2825 67.4268L69.6701 66.8145L70.5067 66.5903L74.2152 65.5966C75.2925 65.3079 75.9318 64.2005 75.6432 63.1231L78.6983 40.9805ZM78.6983 40.9805H79.5643M78.6983 40.9805H79.5643M79.5643 40.9805H83.4805C84.5958 40.9805 85.5 41.8847 85.5 43C85.5 44.1153 84.5958 45.0195 83.4805 45.0195H79.5644H78.6985L79.1314 45.7695L81.0508 49.0943L81.0508 49.0943C81.6086 50.0603 81.2776 51.2953 80.3117 51.853L80.3115 51.8531C79.9929 52.0372 79.6464 52.1241 79.3043 52.1241C78.6048 52.1241 77.9267 51.7613 77.553 51.1139L77.553 51.1139L74.1789 45.2696L74.0345 45.0195H73.7458H49.0827H47.8756L48.7291 45.8731L66.1681 63.3125L66.3722 63.5166M79.5643 40.9805L66.3722 63.5166M66.3722 63.5166L66.6511 63.4419M66.3722 63.5166L66.6511 63.4419M66.6511 63.4419L73.1696 61.6953C74.2474 61.4065 75.3543 62.0457 75.6432 63.1231L66.6511 63.4419Z" fill="#F55E46" stroke="white"/>
<path d="M10.5911 40.9805C11.7064 40.9805 12.6106 41.8847 12.6106 43C12.6106 44.1153 11.7064 45.0195 10.5911 45.0195H2.51953C1.40422 45.0195 0.5 44.1153 0.5 43C0.5 41.8847 1.40422 40.9805 2.51953 40.9805H10.5911Z" fill="#F55E46" stroke="white"/>
<path d="M18.6555 21.5116L18.6554 21.5115L12.948 15.804C12.948 15.8039 12.948 15.8039 12.948 15.8039C12.1593 15.015 12.1594 13.7364 12.948 12.9479C13.7369 12.1591 15.0157 12.1593 15.804 12.9478L15.804 12.9479L21.5112 18.6555C21.5112 18.6555 21.5112 18.6555 21.5113 18.6555C22.3 19.4444 22.2999 20.723 21.5113 21.5115L21.5112 21.5116C21.1169 21.906 20.6008 22.1031 20.0833 22.1031C19.5658 22.1031 19.0499 21.9061 18.6555 21.5116Z" fill="#F55E46" stroke="white"/>
<path d="M12.948 70.1961L12.948 70.196L18.6554 64.4886C19.4439 63.7001 20.7227 63.7001 21.5113 64.4886C22.3 65.2773 22.2999 66.5561 21.5113 67.3446L21.5113 67.3446L15.8039 73.052L15.8038 73.0521C15.4095 73.4465 14.8934 73.6437 14.3759 73.6437C13.8585 73.6437 13.3425 73.4465 12.948 73.052C12.1593 72.2633 12.1593 70.9846 12.948 70.1961Z" fill="#F55E46" stroke="white"/>
<path d="M28.9815 13.7102L28.9814 13.7102L25.9563 6.22682L25.9563 6.22675C25.5381 5.19282 26.0376 4.01558 27.0716 3.59769L27.0718 3.59762C28.1054 3.17939 29.2828 3.67891 29.7007 4.71293L29.7008 4.71297L32.7259 12.1963L32.7259 12.1964C33.1441 13.2303 32.6446 14.4076 31.6106 14.8254L31.6105 14.8255C31.3617 14.9261 31.1057 14.9734 30.8545 14.9734C30.0548 14.9734 29.2987 14.4954 28.9815 13.7102Z" fill="#F55E46" stroke="white"/>
<path d="M14.8254 54.3893L14.8255 54.3893C15.2437 55.4235 14.7442 56.6005 13.7102 57.0184L13.7102 57.0184L6.22699 60.0436L6.22692 60.0436C5.97806 60.1442 5.72216 60.1915 5.47091 60.1915C4.6713 60.1915 3.91529 59.7135 3.59785 58.9283L3.59782 58.9282C3.17967 57.8943 3.67915 56.717 4.71311 56.2991L4.71314 56.2991L12.1963 53.274L12.1964 53.274C13.2302 52.8558 14.4076 53.3553 14.8254 54.3893Z" fill="#F55E46" stroke="white"/>
<path d="M25.7807 79.6911L25.7807 79.6911C25.3577 80.7232 25.8516 81.9028 26.8835 82.3256C27.135 82.4287 27.394 82.4771 27.6485 82.4771C28.4446 82.4771 29.1982 82.0033 29.5182 81.2229L25.7807 79.6911ZM25.7807 79.6911L28.8416 72.2224C28.8416 72.2224 28.8416 72.2224 28.8416 72.2224M25.7807 79.6911L28.8416 72.2224M28.8416 72.2224C29.2647 71.1906 30.4437 70.6967 31.4762 71.1196L28.8416 72.2224ZM32.5791 73.7541L29.5183 81.2228L31.4763 71.1196C32.5083 71.5427 33.002 72.7222 32.5791 73.7541C32.5791 73.7541 32.5791 73.7541 32.5791 73.7541Z" fill="#F55E46" stroke="white"/>
<path d="M4.77732 29.5183L4.77727 29.5182C3.74502 29.0953 3.25137 27.9159 3.6745 26.884L3.67456 26.8838C4.09743 25.8518 5.27711 25.358 6.30892 25.7809L6.30893 25.7809L13.7777 28.8416L13.7777 28.8417C14.8098 29.2646 15.3036 30.4441 14.8806 31.476L14.8806 31.476C14.5606 32.2567 13.8072 32.7304 13.0108 32.7304C12.7564 32.7304 12.4974 32.682 12.2461 32.579L12.246 32.579L4.77732 29.5183Z" fill="#F55E46" stroke="white"/>
<path d="M17.8047 43C17.8047 54.2484 25.2146 63.7979 35.4092 67.0259V18.9741C25.2146 22.2021 17.8047 31.7517 17.8047 43Z" fill="#F55E46"/>
</svg>
