<svg width="26" height="34" viewBox="0 0 26 34" fill="none" xmlns="http://www.w3.org/2000/svg">
<path d="M18.4973 29.3516H7.20291C5.62975 29.3516 4.3501 30.6312 4.3501 32.2044V33.0039C4.3501 33.5538 4.79568 34 5.34619 34H20.354C20.9045 34 21.3501 33.5538 21.3501 33.0039V32.2044C21.3501 30.6312 20.0704 29.3516 18.4973 29.3516Z" fill="black"/>
<path d="M12.8501 15.4116C13.9504 15.4116 14.8423 14.5197 14.8423 13.4194C14.8423 12.3192 13.9504 11.4273 12.8501 11.4273C11.7498 11.4273 10.8579 12.3192 10.8579 13.4194C10.8579 14.5197 11.7498 15.4116 12.8501 15.4116Z" fill="black"/>
<path d="M12.8501 9.435C13.8023 9.435 14.6776 9.77102 15.3636 10.3308C15.9127 9.49941 16.1086 8.46547 15.8782 7.4707L14.4379 1.26172C14.2652 0.518633 13.6124 0 12.8501 0C12.0776 0 11.4324 0.528859 11.2623 1.26172L9.82196 7.4707C9.59153 8.46547 9.78742 9.49941 10.3366 10.3308C11.0226 9.77102 11.8978 9.435 12.8501 9.435Z" fill="black"/>
<path d="M10.6832 16.7609C9.59013 16.0497 8.86564 14.8179 8.86564 13.4194C8.86564 12.9107 8.96126 12.4246 9.13591 11.977C8.17634 11.7107 7.1331 11.8416 6.25853 12.3662L0.792628 15.646C0.138527 16.0378 -0.154325 16.8187 0.0800892 17.5445C0.313839 18.2677 1.00699 18.7318 1.7688 18.6675L8.12056 18.1296C9.1379 18.0433 10.0609 17.5392 10.6832 16.7609Z" fill="black"/>
<path d="M24.9074 15.646L19.4415 12.3662C18.5669 11.8416 17.5237 11.7107 16.5641 11.977C16.7388 12.4246 16.8344 12.9107 16.8344 13.4194C16.8344 14.8179 16.1099 16.0497 15.0168 16.7609C15.6391 17.5392 16.5621 18.0432 17.5795 18.1296C24.4097 18.708 23.9677 18.6734 24.072 18.6734C24.7752 18.6734 25.4001 18.2245 25.6199 17.5445C25.8543 16.8187 25.5615 16.0378 24.9074 15.646Z" fill="black"/>
<path d="M13.461 18.0047C13.3136 17.8201 13.2014 17.6129 13.129 17.3938C12.9467 17.4069 12.7582 17.4073 12.5712 17.3938C12.4988 17.6129 12.3866 17.8201 12.2392 18.0047C11.6721 18.7146 10.9423 19.2724 10.1241 19.639L9.19312 27.3594H16.5071L15.5761 19.639C14.758 19.2724 14.0282 18.7146 13.461 18.0047Z" fill="black"/>
</svg>
